<?xml version="1.0" encoding="utf-8"?>
<!-- Generator: Adobe Illustrator 16.0.4, SVG Export Plug-In . SVG Version: 6.00 Build 0)  -->
<!DOCTYPE svg PUBLIC "-//W3C//DTD SVG 1.1//EN" "http://www.w3.org/Graphics/SVG/1.1/DTD/svg11.dtd">
<svg version="1.1" id="Capa_1" xmlns="http://www.w3.org/2000/svg" xmlns:xlink="http://www.w3.org/1999/xlink" x="0px" y="0px"
	 width="387.777px" height="612.281px" viewBox="112.251 123.31 387.777 612.281"
	 enable-background="new 112.251 123.31 387.777 612.281" xml:space="preserve">
<g>
	<g>
		<path fill="#FFFFFF" d="M306.14,123.31c-107.033,0.119-193.77,86.856-193.889,193.889v224.503
			c0,107.082,86.808,193.889,193.889,193.889s193.889-86.807,193.889-193.889V317.199C499.91,210.166,413.173,123.429,306.14,123.31
			z M326.549,225.356v61.228c0,11.272-9.137,20.41-20.409,20.41s-20.409-9.137-20.409-20.41v-61.228
			c0-11.272,9.137-20.409,20.409-20.409S326.549,214.084,326.549,225.356z M132.66,317.199
			c0.152-91.748,71.688-167.526,163.275-172.959v41.747c-17.967,4.639-30.544,20.814-30.614,39.37v61.228
			c0.07,18.556,12.647,34.73,30.614,39.37v42.268H132.66V317.199z M479.619,541.702c-0.107,95.766-77.714,173.371-173.479,173.479
			c-95.766-0.107-173.372-77.713-173.479-173.479v-153.07h346.959V541.702z M479.619,368.222H316.345v-42.268
			c17.968-4.639,30.544-20.813,30.613-39.37v-61.228c-0.069-18.556-12.646-34.73-30.613-39.37V144.24
			c91.587,5.433,163.122,81.211,163.274,172.959V368.222z"/>
	</g>
</g>
</svg>
