<?xml version="1.0" encoding="utf-8"?>
<!-- Generator: Adobe Illustrator 21.1.0, SVG Export Plug-In . SVG Version: 6.00 Build 0)  -->
<svg version="1.1" id="Layer_1" xmlns="http://www.w3.org/2000/svg" xmlns:xlink="http://www.w3.org/1999/xlink" x="0px" y="0px"
	 viewBox="0 0 1663.6 99.6" style="enable-background:new 0 0 1663.6 99.6;" xml:space="preserve">
<style type="text/css">
	.st0{fill:none;stroke:#FFFFFF;stroke-width:2;stroke-linecap:round;stroke-miterlimit:10;}
	.st1{fill:url(#SVGID_1_);}
	.st2{fill:url(#SVGID_2_);}
	.st3{fill:url(#SVGID_3_);}
	.st4{fill:url(#SVGID_4_);}
	.st5{fill:#FFFFFF;}
</style>
<g>
	<line class="st0" x1="110.1" y1="1" x2="110.1" y2="83.4"/>
	<g>
		
			<linearGradient id="SVGID_1_" gradientUnits="userSpaceOnUse" x1="59.2304" y1="75.0388" x2="24.8883" y2="40.6967" gradientTransform="matrix(1 0 0 -1 0 83.89)">
			<stop  offset="0" style="stop-color:#F9B233"/>
			<stop  offset="1" style="stop-color:#E6332A"/>
		</linearGradient>
		<path class="st1" d="M40.6,0.1v7.6c-6.2,0.8-11.1,6-11.1,12.4V22h-7.6v-1.9C21.9,9.5,30.2,0.9,40.6,0.1z M21.9,29.6v10.7
			c4.2,0,7.6-3.4,7.6-7.5v-3.1L21.9,29.6L21.9,29.6z M43.6,0.1v7.6c6.2,0.8,11.1,6,11.1,12.4v12.6c0,4.2,3.4,7.5,7.5,7.5v-20
			C62.2,9.5,54,0.9,43.6,0.1z"/>
		
			<linearGradient id="SVGID_2_" gradientUnits="userSpaceOnUse" x1="-9427.5098" y1="6601.1519" x2="-9461.8555" y2="6566.8071" gradientTransform="matrix(0 -1 -1 0 6609.9067 -9402.4551)">
			<stop  offset="0" style="stop-color:#F9B233"/>
			<stop  offset="1" style="stop-color:#E6332A"/>
		</linearGradient>
		<path class="st2" d="M0,43.7h7.6c0.8,6.2,6,11.1,12.4,11.1h1.9v7.6H20C9.4,62.3,0.8,54.1,0,43.7z M29.5,62.3h10.7
			c0-4.2-3.4-7.6-7.5-7.6h-3.1v7.6H29.5z M0,40.7h7.6c0.8-6.2,6-11.1,12.4-11.1h12.6c4.2,0,7.5-3.4,7.5-7.5H20
			C9.4,22.1,0.8,30.3,0,40.7z"/>
		
			<linearGradient id="SVGID_3_" gradientUnits="userSpaceOnUse" x1="-2923.2175" y1="16087.8545" x2="-2957.5496" y2="16053.5215" gradientTransform="matrix(-1 0 0 1 -2898.2898 -16012.3613)">
			<stop  offset="0" style="stop-color:#F9B233"/>
			<stop  offset="1" style="stop-color:#E6332A"/>
		</linearGradient>
		<path class="st3" d="M43.6,84.2v-7.6c6.2-0.8,11.1-6,11.1-12.4v-1.9h7.6v1.9C62.2,74.8,54,83.5,43.6,84.2z M62.2,54.8V44.1
			c-4.2,0-7.6,3.4-7.6,7.5v3.1h7.6V54.8z M40.6,84.2v-7.6c-6.2-0.8-11.1-6-11.1-12.4V51.6c0-4.2-3.4-7.5-7.5-7.5v20.1
			C21.9,74.8,30.2,83.5,40.6,84.2z"/>
		
			<linearGradient id="SVGID_4_" gradientUnits="userSpaceOnUse" x1="6541.6685" y1="9583.5713" x2="6507.354" y2="9549.2568" gradientTransform="matrix(0 1 1 0 -9508.1963 -6482.314)">
			<stop  offset="0" style="stop-color:#F9B233"/>
			<stop  offset="1" style="stop-color:#E6332A"/>
		</linearGradient>
		<path class="st4" d="M84.1,40.7h-7.6c-0.8-6.2-6-11.1-12.4-11.1h-1.9V22h1.9C74.7,22.1,83.4,30.3,84.1,40.7z M54.6,22.1H44
			c0,4.2,3.4,7.6,7.5,7.6h3.1V22.1z M84.1,43.7h-7.6c-0.8,6.2-6,11.1-12.4,11.1H51.5c-4.2,0-7.5,3.4-7.5,7.5h20.1
			C74.7,62.3,83.4,54.1,84.1,43.7z"/>
	</g>
	<g>
		<path class="st5" d="M208.8,3.6v44.9c0,24.2-15,37.5-36.3,37.5c-21.5,0-36.3-13.3-36.3-37.5V3.6h19.4v45.6
			c0,11.5,6.3,18.7,17,18.7s17-7.2,17-18.7V3.6H208.8z"/>
		<path class="st5" d="M259.2,3.6c14.4,0,24.5,9.6,24.5,21.3c0,7.6-4.6,14-9.5,15.9c7.7,2.4,13.6,10.7,13.6,19
			c0,13.5-8.9,24.5-28.8,24.5h-34.8V3.6H259.2z M255.2,34.6c5.2,0,9-3.2,9-7.6c0-4.4-3.8-7.6-9-7.6h-11.7v15.2H255.2z M257,68.6
			c6.5,0,10.5-3.8,10.5-9.1c0-5.6-4.4-9.1-10.5-9.1h-13.5v18.2H257z"/>
		<path class="st5" d="M300.3,84.4V3.6h19.4v80.7H300.3z"/>
		<path class="st5" d="M364.7,84.8c-18.3-4.2-32-20.1-32-40.8c0-24.3,18.7-42,41.9-42s42,17.6,42,42c0,20.9-13.8,36.9-32.5,41v14.6
			h-19.4V84.8z M396.4,44c0-13.6-8.7-22.8-21.8-22.8c-13,0-21.7,9.2-21.7,22.8c0,13.5,8.7,22.8,21.7,22.8
			C387.8,66.8,396.4,57.5,396.4,44z"/>
		<path class="st5" d="M500.9,3.6v44.9c0,24.2-15,37.5-36.3,37.5c-21.5,0-36.3-13.3-36.3-37.5V3.6h19.4v45.6
			c0,11.5,6.3,18.7,17,18.7c10.6,0,17-7.2,17-18.7V3.6H500.9z"/>
		<path class="st5" d="M516.3,84.4V3.6h19.4v80.7H516.3z"/>
		<path class="st5" d="M614,3.6v18.1h-24.6v62.6h-19.4V21.7h-24.2V3.6H614z"/>
		<path class="st5" d="M703.3,3.6l-32.1,46.1v34.6h-19.4V49.8L619.8,3.6h23.5l16.7,24.6l1.5,3l1.5-3l16.7-24.6H703.3z"/>
		<path class="st5" d="M794.4,3.6c23.1,0,41.9,16.6,41.9,40.8c0,23.8-18.4,39.9-40.8,39.9h-34.7V3.6H794.4z M795.4,78
			c18.2,0,33.9-12.7,33.9-33.6c0-21.2-15.7-34.5-35-34.5h-26.9V78H795.4z"/>
		<path class="st5" d="M906.1,78v6.3h-53.3V3.6h52.6V10h-45.8v28.1h37v6.2h-37V78H906.1z"/>
		<path class="st5" d="M966.5,25.2c-1.7-10.7-10.6-17.3-21.9-17.3c-11.9,0-20.5,5.4-20.5,15.3c0,9.8,11.5,12.6,22.8,15.7
			c11.1,3.2,27.2,7.4,27.2,24c0,13.3-11.5,23.1-28.9,23.1c-17.4,0-28-10.4-29.8-23.6l6.3-1.7c0.9,10.5,9.3,19.3,23.6,19.3
			c13.3,0,21.8-7.2,21.8-16.8c0-13-16-16.3-27-19.5c-9.7-2.8-23.1-6.6-23.1-20.2c0-12.6,11.7-21.3,27.6-21.3
			c14.4,0,25.7,8.4,28.1,21.5L966.5,25.2z"/>
		<path class="st5" d="M990.2,84.4V3.6h6.8v80.7H990.2z"/>
		<path class="st5" d="M1087,70.9c-3.6,4.6-13.6,15.1-31.7,15.1c-23.2,0-41.9-17.6-41.9-42s18.7-42,41.9-42
			c17,0.5,29.8,8.7,36.7,21.1l-6.7,1.7c-6-10.2-17.3-16.4-30-16.4c-19.7,0-34.9,14.3-34.9,35.5c0,21.1,15.3,35.5,35.2,35.5
			c16.5,0,28.3-10.1,31.5-17.3V49.6h-25.5v-6h31.5v41h-6V70.9z"/>
		<path class="st5" d="M1177.2,3.6v80.7h-6.3l-50.2-66.8l-1.6-2.4l0.2,3.3v65.9h-6.8V3.6h6.3l50.3,66.6l1.5,2.5l-0.2-3.5V3.6H1177.2
			z"/>
		<path class="st5" d="M1291.7,25.2c-1.7-10.7-10.6-17.3-21.9-17.3c-11.9,0-20.5,5.4-20.5,15.3c0,9.8,11.5,12.6,22.8,15.7
			c11.1,3.2,27.2,7.4,27.2,24c0,13.3-11.5,23.1-28.9,23.1c-17.4,0-28-10.4-29.8-23.6l6.3-1.7c0.9,10.5,9.3,19.3,23.6,19.3
			c13.3,0,21.8-7.2,21.8-16.8c0-13-16-16.3-27-19.5c-9.7-2.8-23.1-6.6-23.1-20.2c0-12.6,11.7-21.3,27.6-21.3
			c14.4,0,25.7,8.4,28.1,21.5L1291.7,25.2z"/>
		<path class="st5" d="M1367.3,3.6V10h-27.8v74.4h-6.8V10h-27.6V3.6H1367.3z"/>
		<path class="st5" d="M1445.4,3.6v47.9c0,21.6-11.6,34.6-33.1,34.6c-21.3,0-33.1-13-33.1-34.6V3.6h6.8v48.3
			c0,17.2,9,27.8,26.3,27.8c17.3,0,26.3-10.6,26.3-27.8V3.6H1445.4z"/>
		<path class="st5" d="M1498.1,3.6c23.1,0,41.9,16.6,41.9,40.8c0,23.8-18.5,39.9-40.8,39.9h-34.7V3.6H1498.1z M1499.1,78
			c18.2,0,33.9-12.7,33.9-33.6c0-21.2-15.7-34.5-35-34.5h-26.9V78H1499.1z"/>
		<path class="st5" d="M1556.5,84.4V3.6h6.8v80.7H1556.5z"/>
		<path class="st5" d="M1621.6,2c23.2,0,42,17.6,42,42s-18.8,42-42,42s-41.9-17.6-41.9-42S1598.4,2,1621.6,2z M1621.6,79.5
			c19.6,0,35.1-14.5,35.1-35.5c0-21.2-15.5-35.5-35.1-35.5c-19.7,0-34.9,14.3-34.9,35.5C1586.6,65,1601.9,79.5,1621.6,79.5z"/>
	</g>
</g>
</svg>
