<?xml version="1.0" encoding="utf-8"?>
<!-- Generator: Adobe Illustrator 16.0.4, SVG Export Plug-In . SVG Version: 6.00 Build 0)  -->
<!DOCTYPE svg PUBLIC "-//W3C//DTD SVG 1.1//EN" "http://www.w3.org/Graphics/SVG/1.1/DTD/svg11.dtd">
<svg version="1.1" id="Layer_1" xmlns="http://www.w3.org/2000/svg" xmlns:xlink="http://www.w3.org/1999/xlink" x="0px" y="0px"
	 width="447.346px" height="32.328px" viewBox="0 410.489 447.346 32.328" enable-background="new 0 410.489 447.346 32.328"
	 xml:space="preserve">
<g>
	
		<line fill="none" stroke="#FFFFFF" stroke-width="2" stroke-linecap="round" stroke-miterlimit="10" x1="43.356" y1="411.489" x2="43.356" y2="441.817"/>
	<g>
		
			<linearGradient id="SVGID_1_" gradientUnits="userSpaceOnUse" x1="36.3713" y1="760.814" x2="2.0292" y2="795.1561" gradientTransform="matrix(0.368 0 0 0.368 8.4126 134.3641)">
			<stop  offset="0" style="stop-color:#F9B233"/>
			<stop  offset="1" style="stop-color:#E6332A"/>
		</linearGradient>
		<path fill="url(#SVGID_1_)" d="M14.943,411.158v2.797c-2.282,0.294-4.085,2.208-4.085,4.564v0.699H8.06v-0.699
			C8.06,414.618,11.115,411.453,14.943,411.158z M8.06,422.016v3.938c1.546,0,2.798-1.251,2.798-2.76v-1.142L8.06,422.016
			L8.06,422.016z M16.047,411.158v2.797c2.281,0.294,4.085,2.208,4.085,4.564v4.637c0,1.546,1.251,2.761,2.761,2.761v-7.361
			C22.893,414.618,19.874,411.453,16.047,411.158z"/>
		
			<linearGradient id="SVGID_2_" gradientUnits="userSpaceOnUse" x1="-9404.7764" y1="-5764.7007" x2="-9439.123" y2="-5730.355" gradientTransform="matrix(0 -0.368 0.368 0 2124.8933 -3041.0417)">
			<stop  offset="0" style="stop-color:#F9B233"/>
			<stop  offset="1" style="stop-color:#E6332A"/>
		</linearGradient>
		<path fill="url(#SVGID_2_)" d="M0,427.205h2.797c0.295,2.281,2.208,4.084,4.563,4.084H8.06v2.797H7.361
			C3.459,434.051,0.294,431.032,0,427.205z M10.858,434.051h3.938c0-1.547-1.251-2.799-2.76-2.799h-1.142v2.799H10.858z M0,426.101
			h2.797c0.295-2.281,2.208-4.085,4.563-4.085h4.638c1.546,0,2.761-1.251,2.761-2.761H7.361C3.459,419.255,0.294,422.273,0,426.101z
			"/>
		
			<linearGradient id="SVGID_3_" gradientUnits="userSpaceOnUse" x1="-2901.0808" y1="-15205.8145" x2="-2935.4131" y2="-15171.4814" gradientTransform="matrix(-0.368 0 0 -0.368 -1058.5547 -5157.5225)">
			<stop  offset="0" style="stop-color:#F9B233"/>
			<stop  offset="1" style="stop-color:#E6332A"/>
		</linearGradient>
		<path fill="url(#SVGID_3_)" d="M16.047,442.11v-2.797c2.281-0.293,4.085-2.207,4.085-4.562v-0.699h2.797v0.699
			C22.893,438.651,19.874,441.854,16.047,442.11z M22.893,431.29v-3.937c-1.546,0-2.798,1.251-2.798,2.759v1.141h2.798V431.29z
			 M14.943,442.11v-2.797c-2.282-0.293-4.085-2.207-4.085-4.562v-4.639c0-1.545-1.252-2.759-2.761-2.759v7.398
			C8.06,438.651,11.115,441.854,14.943,442.11z"/>
		
			<linearGradient id="SVGID_4_" gradientUnits="userSpaceOnUse" x1="6518.2144" y1="-8702.123" x2="6483.8989" y2="-8667.8076" gradientTransform="matrix(0 0.368 -0.368 0 -3175.0354 -1966.032)">
			<stop  offset="0" style="stop-color:#F9B233"/>
			<stop  offset="1" style="stop-color:#E6332A"/>
		</linearGradient>
		<path fill="url(#SVGID_4_)" d="M30.952,426.101h-2.797c-0.295-2.281-2.208-4.085-4.563-4.085h-0.699v-2.797h0.699
			C27.493,419.255,30.695,422.273,30.952,426.101z M20.095,419.255h-3.901c0,1.546,1.252,2.797,2.761,2.797h1.141V419.255z
			 M30.952,427.205h-2.797c-0.295,2.281-2.208,4.084-4.563,4.084h-4.638c-1.546,0-2.761,1.252-2.761,2.762h7.398
			C27.493,434.051,30.695,431.032,30.952,427.205z"/>
	</g>
	<g>
		<path fill="#FFFFFF" d="M74.408,416.293v11.51c0,6.203-3.845,9.614-9.306,9.614c-5.512,0-9.305-3.411-9.305-9.614v-11.51h4.973
			v11.69c0,2.948,1.615,4.793,4.358,4.793s4.358-1.846,4.358-4.793v-11.69H74.408z"/>
		<path fill="#FFFFFF" d="M87.328,416.293c3.691,0,6.28,2.461,6.28,5.46c0,1.949-1.179,3.589-2.435,4.076
			c1.974,0.615,3.486,2.742,3.486,4.871c0,3.46-2.281,6.279-7.383,6.279h-8.921v-20.687H87.328z M86.302,424.24
			c1.333,0,2.307-0.82,2.307-1.948s-0.974-1.948-2.307-1.948h-2.999v3.896H86.302z M86.764,432.957c1.666,0,2.691-0.975,2.691-2.333
			c0-1.436-1.128-2.333-2.691-2.333h-3.461v4.666H86.764z"/>
		<path fill="#FFFFFF" d="M97.864,437.006v-20.713h4.974v20.687h-4.974V437.006z"/>
		<path fill="#FFFFFF" d="M114.373,437.108c-4.691-1.075-8.203-5.151-8.203-10.458c0-6.229,4.794-10.767,10.741-10.767
			c5.948,0,10.767,4.512,10.767,10.767c0,5.358-3.538,9.46-8.331,10.51v3.743h-4.974V437.108z M122.499,426.65
			c0-3.486-2.23-5.845-5.589-5.845c-3.332,0-5.562,2.358-5.562,5.845c0,3.461,2.23,5.846,5.562,5.846
			C120.295,432.496,122.499,430.111,122.499,426.65z"/>
		<path fill="#FFFFFF" d="M149.288,416.293v11.51c0,6.203-3.845,9.614-9.306,9.614c-5.511,0-9.305-3.411-9.305-9.614v-11.51h4.973
			v11.69c0,2.948,1.616,4.793,4.358,4.793c2.717,0,4.358-1.846,4.358-4.793v-11.69H149.288z"/>
		<path fill="#FFFFFF" d="M153.236,437.006v-20.713h4.974v20.687h-4.974V437.006z"/>
		<path fill="#FFFFFF" d="M178.281,416.293v4.64h-6.306v16.047h-4.974v-16.047h-6.203v-4.64H178.281z"/>
		<path fill="#FFFFFF" d="M201.173,416.293l-8.229,11.817v8.869h-4.974v-8.843l-8.203-11.843h6.024l4.281,6.306l0.384,0.769
			l0.384-0.769l4.281-6.306H201.173z"/>
		<path fill="#FFFFFF" d="M224.527,416.293c5.922,0,10.741,4.255,10.741,10.459c0,6.1-4.717,10.227-10.458,10.227h-8.896v-20.687
			H224.527z M224.783,435.366c4.665,0,8.69-3.256,8.69-8.613c0-5.435-4.025-8.844-8.972-8.844h-6.896v17.457H224.783z"/>
		<path fill="#FFFFFF" d="M253.161,435.366v1.614h-13.664v-20.687h13.484v1.641H241.24v7.203h9.485v1.59h-9.485v8.639H253.161z"/>
		<path fill="#FFFFFF" d="M268.645,421.831c-0.436-2.743-2.717-4.435-5.614-4.435c-3.051,0-5.255,1.384-5.255,3.922
			c0,2.512,2.948,3.229,5.845,4.025c2.845,0.82,6.973,1.897,6.973,6.153c0,3.409-2.948,5.922-7.409,5.922s-7.178-2.667-7.639-6.052
			l1.615-0.435c0.231,2.691,2.384,4.947,6.05,4.947c3.409,0,5.588-1.846,5.588-4.307c0-3.333-4.102-4.178-6.921-4.999
			c-2.487-0.718-5.922-1.692-5.922-5.178c0-3.23,2.999-5.46,7.075-5.46c3.691,0,6.588,2.153,7.203,5.511L268.645,421.831z"/>
		<path fill="#FFFFFF" d="M274.72,437.006v-20.713h1.743v20.687h-1.743V437.006z"/>
		<path fill="#FFFFFF" d="M299.534,433.545c-0.922,1.18-3.486,3.872-8.126,3.872c-5.947,0-10.741-4.513-10.741-10.768
			s4.794-10.767,10.741-10.767c4.358,0.128,7.639,2.23,9.408,5.409l-1.717,0.436c-1.539-2.615-4.435-4.204-7.691-4.204
			c-5.05,0-8.947,3.666-8.947,9.1c0,5.409,3.923,9.101,9.023,9.101c4.23,0,7.255-2.589,8.075-4.436v-3.204h-6.537v-1.538h8.075
			v10.511h-1.538v-3.513H299.534z"/>
		<path fill="#FFFFFF" d="M322.658,416.293v20.687h-1.615l-12.869-17.124l-0.41-0.615l0.052,0.846v16.893h-1.744v-20.687h1.615
			l12.896,17.072l0.384,0.641l-0.051-0.896v-16.816H322.658z"/>
		<path fill="#FFFFFF" d="M352.011,421.831c-0.436-2.743-2.718-4.435-5.614-4.435c-3.051,0-5.255,1.384-5.255,3.922
			c0,2.512,2.948,3.229,5.845,4.025c2.846,0.82,6.973,1.897,6.973,6.153c0,3.409-2.948,5.922-7.408,5.922
			c-4.461,0-7.179-2.667-7.64-6.052l1.615-0.435c0.23,2.691,2.384,4.947,6.05,4.947c3.409,0,5.589-1.846,5.589-4.307
			c0-3.333-4.103-4.178-6.922-4.999c-2.487-0.718-5.922-1.692-5.922-5.178c0-3.23,2.999-5.46,7.075-5.46
			c3.691,0,6.588,2.153,7.203,5.511L352.011,421.831z"/>
		<path fill="#FFFFFF" d="M371.391,416.293v1.641h-7.127v19.072h-1.743v-19.072h-7.074v-1.641H371.391z"/>
		<path fill="#FFFFFF" d="M391.412,416.293v12.278c0,5.538-2.974,8.87-8.485,8.87c-5.461,0-8.485-3.332-8.485-8.87v-12.278h1.743
			v12.382c0,4.409,2.307,7.126,6.742,7.126c4.435,0,6.742-2.717,6.742-7.126v-12.382H391.412z"/>
		<path fill="#FFFFFF" d="M404.921,416.293c5.922,0,10.741,4.255,10.741,10.459c0,6.1-4.742,10.227-10.459,10.227h-8.896v-20.687
			H404.921z M405.178,435.366c4.665,0,8.69-3.256,8.69-8.613c0-5.435-4.025-8.844-8.973-8.844H398v17.457H405.178z"/>
		<path fill="#FFFFFF" d="M419.893,437.006v-20.713h1.743v20.687h-1.743V437.006z"/>
		<path fill="#FFFFFF" d="M436.581,415.883c5.947,0,10.766,4.512,10.766,10.767s-4.818,10.768-10.766,10.768
			s-10.742-4.513-10.742-10.768S430.634,415.883,436.581,415.883z M436.581,435.75c5.023,0,8.997-3.718,8.997-9.101
			c0-5.435-3.974-9.101-8.997-9.101c-5.051,0-8.947,3.666-8.947,9.101C427.609,432.033,431.531,435.75,436.581,435.75z"/>
	</g>
</g>
</svg>
