<?xml version="1.0" encoding="utf-8"?>
<!-- Generator: Adobe Illustrator 21.1.0, SVG Export Plug-In . SVG Version: 6.00 Build 0)  -->
<svg version="1.1" id="Layer_1" xmlns="http://www.w3.org/2000/svg" xmlns:xlink="http://www.w3.org/1999/xlink" x="0px" y="0px"
	 viewBox="0 0 400 84.4" style="enable-background:new 0 0 400 84.4;" xml:space="preserve">
<style type="text/css">
	.st0{fill:#FFFFFF;}
	.st1{fill:none;stroke:#FFFFFF;stroke-width:2;stroke-linecap:round;stroke-miterlimit:10;}
	.st2{fill:url(#SVGID_1_);}
	.st3{fill:url(#SVGID_2_);}
	.st4{fill:url(#SVGID_3_);}
	.st5{fill:url(#SVGID_4_);}
</style>
<g>
	<g>
		<g>
			<path class="st0" d="M169.9,2.7v20.9c0,11.3-7,17.4-16.9,17.4c-10,0-16.9-6.2-16.9-17.4V2.7h9v21.2c0,5.4,3,8.7,7.9,8.7
				c4.9,0,7.9-3.3,7.9-8.7V2.7H169.9z"/>
			<path class="st0" d="M193.4,2.7c6.7,0,11.4,4.5,11.4,9.9c0,3.5-2.1,6.5-4.4,7.4c3.6,1.1,6.3,5,6.3,8.9c0,6.3-4.1,11.4-13.4,11.4
				h-16.2V2.7H193.4z M191.5,17.1c2.4,0,4.2-1.5,4.2-3.5c0-2-1.8-3.5-4.2-3.5h-5.4v7.1H191.5z M192.4,32.9c3,0,4.9-1.8,4.9-4.2
				c0-2.6-2-4.2-4.9-4.2h-6.3v8.5H192.4z"/>
			<path class="st0" d="M212.5,40.3V2.7h9v37.6H212.5z"/>
			<path class="st0" d="M242.5,40.5c-8.5-1.9-14.9-9.3-14.9-19c0-11.3,8.7-19.5,19.5-19.5c10.8,0,19.5,8.2,19.5,19.5
				c0,9.7-6.4,17.2-15.1,19.1v6.8h-9V40.5z M257.2,21.5c0-6.3-4-10.6-10.1-10.6c-6.1,0-10.1,4.3-10.1,10.6c0,6.3,4,10.6,10.1,10.6
				C253.2,32.1,257.2,27.8,257.2,21.5z"/>
			<path class="st0" d="M305.8,2.7v20.9c0,11.3-7,17.4-16.9,17.4c-10,0-16.9-6.2-16.9-17.4V2.7h9v21.2c0,5.4,2.9,8.7,7.9,8.7
				c4.9,0,7.9-3.3,7.9-8.7V2.7H305.8z"/>
			<path class="st0" d="M313,40.3V2.7h9v37.6H313z"/>
			<path class="st0" d="M358.4,2.7v8.4H347v29.1h-9V11.1h-11.3V2.7H358.4z"/>
			<path class="st0" d="M400,2.7l-14.9,21.5v16.1h-9V24.2L361.1,2.7h10.9l7.8,11.4l0.7,1.4l0.7-1.4l7.8-11.4H400z"/>
		</g>
		<g>
			<path class="st0" d="M146.7,58.6c6.7,0,12.1,4.8,12.1,11.8c0,6.9-5.3,11.5-11.8,11.5h-10V58.6H146.7z M147,80.1
				c5.3,0,9.8-3.7,9.8-9.7c0-6.1-4.5-9.9-10.1-9.9h-7.7v19.6H147z"/>
			<path class="st0" d="M178.9,80.1v1.8h-15.4V58.6h15.2v1.8h-13.2v8.1h10.7v1.8h-10.7v9.7H178.9z"/>
			<path class="st0" d="M196.3,64.9c-0.5-3.1-3.1-5-6.3-5c-3.4,0-5.9,1.6-5.9,4.4c0,2.8,3.3,3.6,6.6,4.5c3.2,0.9,7.8,2.1,7.8,6.9
				c0,3.8-3.3,6.7-8.3,6.7c-5,0-8.1-3-8.6-6.8l1.8-0.5c0.3,3,2.7,5.6,6.8,5.6c3.8,0,6.3-2.1,6.3-4.9c0-3.8-4.6-4.7-7.8-5.6
				c-2.8-0.8-6.7-1.9-6.7-5.8c0-3.6,3.4-6.2,7.9-6.2c4.2,0,7.4,2.4,8.1,6.2L196.3,64.9z"/>
			<path class="st0" d="M203.1,81.9V58.6h2v23.3H203.1z"/>
			<path class="st0" d="M231,78c-1,1.3-3.9,4.4-9.1,4.4c-6.7,0-12.1-5.1-12.1-12.1s5.4-12.1,12.1-12.1c4.9,0.1,8.6,2.5,10.6,6.1
				l-1.9,0.5c-1.7-2.9-5-4.7-8.6-4.7c-5.7,0-10.1,4.1-10.1,10.2c0,6.1,4.4,10.2,10.1,10.2c4.8,0,8.1-2.9,9.1-5v-3.6h-7.4v-1.7h9.1
				V82H231V78z"/>
			<path class="st0" d="M257,58.6v23.3h-1.8l-14.5-19.3l-0.5-0.7l0.1,1v19h-2V58.6h1.8l14.5,19.2l0.4,0.7l-0.1-1V58.6H257z"/>
			<path class="st0" d="M290.1,64.9c-0.5-3.1-3.1-5-6.3-5c-3.4,0-5.9,1.6-5.9,4.4c0,2.8,3.3,3.6,6.6,4.5c3.2,0.9,7.9,2.1,7.9,6.9
				c0,3.8-3.3,6.7-8.3,6.7c-5,0-8.1-3-8.6-6.8l1.8-0.5c0.3,3,2.7,5.6,6.8,5.6c3.8,0,6.3-2.1,6.3-4.9c0-3.8-4.6-4.7-7.8-5.6
				c-2.8-0.8-6.7-1.9-6.7-5.8c0-3.6,3.4-6.2,7.9-6.2c4.2,0,7.4,2.4,8.1,6.2L290.1,64.9z"/>
			<path class="st0" d="M311.9,58.6v1.8h-8v21.5h-2V60.5h-7.9v-1.8H311.9z"/>
			<path class="st0" d="M334.4,58.6v13.8c0,6.2-3.4,10-9.5,10c-6.2,0-9.5-3.8-9.5-10V58.6h2v13.9c0,5,2.6,8,7.6,8c5,0,7.6-3.1,7.6-8
				V58.6H334.4z"/>
			<path class="st0" d="M349.6,58.6c6.7,0,12.1,4.8,12.1,11.8c0,6.9-5.3,11.5-11.8,11.5h-10V58.6H349.6z M349.9,80.1
				c5.3,0,9.8-3.7,9.8-9.7c0-6.1-4.5-9.9-10.1-9.9h-7.8v19.6H349.9z"/>
			<path class="st0" d="M366.4,81.9V58.6h2v23.3H366.4z"/>
			<path class="st0" d="M385.2,58.2c6.7,0,12.1,5.1,12.1,12.1s-5.4,12.1-12.1,12.1c-6.7,0-12.1-5.1-12.1-12.1S378.5,58.2,385.2,58.2
				z M385.2,80.5c5.7,0,10.1-4.2,10.1-10.2c0-6.1-4.5-10.2-10.1-10.2c-5.7,0-10.1,4.1-10.1,10.2C375.1,76.3,379.5,80.5,385.2,80.5z"
				/>
		</g>
	</g>
	<line class="st1" x1="110.1" y1="1" x2="110.1" y2="83.4"/>
	<g>
		<linearGradient id="SVGID_1_" gradientUnits="userSpaceOnUse" x1="59.2372" y1="8.8831" x2="24.8951" y2="43.2252">
			<stop  offset="0" style="stop-color:#F9B233"/>
			<stop  offset="1" style="stop-color:#E6332A"/>
		</linearGradient>
		<path class="st2" d="M40.6,0.1v7.6c-6.2,0.8-11.1,6-11.1,12.4v1.9h-7.6v-1.9C21.9,9.5,30.2,0.9,40.6,0.1z M21.9,29.6v10.7
			c4.2,0,7.6-3.4,7.6-7.5v-3.1H21.9z M43.6,0.1v7.6c6.2,0.8,11.1,6,11.1,12.4v12.6c0,4.2,3.4,7.5,7.5,7.5V20.2
			C62.2,9.5,54,0.9,43.6,0.1z"/>
		
			<linearGradient id="SVGID_2_" gradientUnits="userSpaceOnUse" x1="-8951.4619" y1="-6235.2456" x2="-8985.8047" y2="-6200.9033" gradientTransform="matrix(0 -1 1 0 6244.0166 -8926.4551)">
			<stop  offset="0" style="stop-color:#F9B233"/>
			<stop  offset="1" style="stop-color:#E6332A"/>
		</linearGradient>
		<path class="st3" d="M0,43.7h7.6c0.8,6.2,6,11.1,12.4,11.1h1.9v7.6H20C9.4,62.3,0.8,54.1,0,43.7z M29.5,62.3h10.7
			c0-4.2-3.4-7.6-7.5-7.6h-3.1V62.3z M0,40.7h7.6c0.8-6.2,6-11.1,12.4-11.1h12.6c4.2,0,7.5-3.4,7.5-7.5H20C9.4,22.1,0.8,30.3,0,40.7
			z"/>
		
			<linearGradient id="SVGID_3_" gradientUnits="userSpaceOnUse" x1="-2729.1848" y1="-15245.9453" x2="-2763.5269" y2="-15211.6025" gradientTransform="matrix(-1 0 0 -1 -2704.2898 -15170.4717)">
			<stop  offset="0" style="stop-color:#F9B233"/>
			<stop  offset="1" style="stop-color:#E6332A"/>
		</linearGradient>
		<path class="st4" d="M43.6,84.2v-7.6c6.2-0.8,11.1-6,11.1-12.4v-1.9h7.6v1.9C62.2,74.8,54,83.5,43.6,84.2z M62.2,54.8V44.1
			c-4.2,0-7.6,3.4-7.6,7.5v3.1H62.2z M40.6,84.2v-7.6c-6.2-0.8-11.1-6-11.1-12.4V51.6c0-4.2-3.4-7.5-7.5-7.5v20.1
			C21.9,74.8,30.2,83.5,40.6,84.2z"/>
		
			<linearGradient id="SVGID_4_" gradientUnits="userSpaceOnUse" x1="6259.6631" y1="-9023.668" x2="6225.3208" y2="-8989.3252" gradientTransform="matrix(0 1 -1 0 -8948.3066 -6200.314)">
			<stop  offset="0" style="stop-color:#F9B233"/>
			<stop  offset="1" style="stop-color:#E6332A"/>
		</linearGradient>
		<path class="st5" d="M84.1,40.7h-7.6c-0.8-6.2-6-11.1-12.4-11.1h-1.9v-7.6h1.9C74.7,22.1,83.4,30.3,84.1,40.7z M54.6,22.1H44
			c0,4.2,3.4,7.6,7.5,7.6h3.1V22.1z M84.1,43.7h-7.6c-0.8,6.2-6,11.1-12.4,11.1H51.5c-4.2,0-7.5,3.4-7.5,7.5h20.1
			C74.7,62.3,83.4,54.1,84.1,43.7z"/>
	</g>
</g>
</svg>
